<?xml version="1.0" encoding="UTF-8"?>
<svg width="600" height="240" version="1.1" xmlns="http://www.w3.org/2000/svg">
 <rect x="241.38" y="9.5915" width="115.63" height="47.105" fill="#e50b14"/>
 <path d="m423.56 212.14 112.64 13.442 27.471-77.665-85.172-17.463 64.138-26.425-15.402 12.753 52.529-14.706 10.23-61.81-124.6 64.223-7.8161 35.156 68.851 19.646-44.713 49.402zm-305.45 7.4108-41.165-57.395 61.77-30.993-106.15-28.19-22.27-64.422 91.93 35.048-24.183-0.25766 80.339 32.801 0.6502 40.782-50.839 17.345 71.397 44.788 19.995 1.3958zm-108.12 10.857 41.724-112.82 31.609 10.34-5.5172 0.68934-21.724 76.861 38.736-1.9531zm183.18-30.029 20.075-108.78-47.872-6.2554 14.711 7.149-10.972 90.581h-6.4209zm9.925 0h37.417l85.464-100.74 12.598-4.5494-45.921 0.81238-50.798 68.972 21.62-69.378-35.03-1.8685-16.174 102.52zm152.41-78.886-5.8621 28.148h-14.368zm-99.31 78.886h46.207l22.874-35.113h18.506l-12.299 35.113h45.977l-7.0115-4.0932 17.586-99.034 12.874-7.0082-46.092 4.2509-86.897 100.3zm131.71 0h79.163l14.142-32.333-15.239 10.236h-42.548l30.68-89.525 10.461-8.0189-53.414 9.1562z"/>
 <path d="m348.36 45.681v-32.24h-7.0376v39.324h13.073v-7.0831zm-28.248-32.24h19.964v7.1808h-6.3533v8.8661h6.3533v7.1808h-6.3533v9.0127h6.3533v7.0831h-13.415v-35.611l-5.6692 35.611-8.2593 0.0244s-3.9342-23.521-4.203-25.182c0.61089 4.0301-1.906 8.2555-4.1786 9.9163l4.4962 15.241h-6.9887l-3.3966-13.018-1.6616 0.24423v12.774h-13.464l-0.80638-6.0573h-5.5225l-0.83082 6.0573h-13.709v-18.954l-3.1767 18.954h-3.7876l-3.2256-18.929v18.929h-7.1108v-39.324h9.0169l3.1767 20.321 3.25-20.321h9.0413v36.173l5.4004-36.173h9.4323l5.2537 34.878 0.0243-34.878h7.2086c6.5 0 9.4323 4.7628 10.263 6.3992l-0.80637-6.3992h7.1841l3.25 23.936zm-11.632 14.069t0.0244 0.0733q0-0.0489-0.0244-0.0733zm-26.684 12.945-2.0282-16.828-1.9304 16.828zm19.744-13.775c0-6.0817-4.1541-6.2526-4.7162-6.2526h-0.0243v12.628c0.58646 0 1.1485-0.12215 1.6861-0.36637 1.6616-0.83042 3.0545-2.8088 3.0545-6.0085z" fill="#fff"/>
</svg>
